PathFileType	4	(X/Y/Z)	F:\MotionCapture\20160217\3\Generated_files\EMG_Fprce_test07-Dynamic.trc
DataRate	CameraRate	NumFrames	NumMarkers	Units	OrigDataRate	OrigDataStartFrame	OrigNumFrames
120.00	120.00	       15	39	mm	120.00	658	       751
Frame#	Time	Top.Head			Front.Head			Rear.Head			R.Shoulder			R.Offset			R.Elbow			R.Wrist			L.Shoulder			L.Elbow			L.Wrist			R.ASIS			L.ASIS			V.Sacral			R.Thigh			R.Knee			R.Shank			R.Ankle			R.Heel			R.Toe			L.Thigh			L.Knee			L.Shank			L.Ankle			L.Heel			L.Toe			R1			R2			R3			R4			R5			R6			R7			L1			L2			L3			L4			L5			L6			L7			V_Mid_ASIS			V_Pelvis_Origin			V_R.Hip_JC			V_L.Hip_JC			V_R.Knee_JC			V_L.Knee_JC			V_R.Ankle_JC			V_L.Ankle_JC			V_Mid_Hip			V_Mid_Shoulder			V_R.Hand			V_L.Hand			V_R.Toe_Offset_Static			V_L.Toe_Offset_Static			V_R.Toe_Offset			V_L.Toe_Offset			
		X1	Y1	Z1	X2	Y2	Z2	X3	Y3	Z3	X4	Y4	Z4	X5	Y5	Z5	X6	Y6	Z6	X7	Y7	Z7	X8	Y8	Z8	X9	Y9	Z9	X10	Y10	Z10	X11	Y11	Z11	X12	Y12	Z12	X13	Y13	Z13	X14	Y14	Z14	X15	Y15	Z15	X16	Y16	Z16	X17	Y17	Z17	X18	Y18	Z18	X19	Y19	Z19	X20	Y20	Z20	X21	Y21	Z21	X22	Y22	Z22	X23	Y23	Z23	X24	Y24	Z24	X25	Y25	Z25	X26	Y26	Z26	X27	Y27	Z27	X28	Y28	Z28	X29	Y29	Z29	X30	Y30	Z30	X31	Y31	Z31	X32	Y32	Z32	X33	Y33	Z33	X34	Y34	Z34	X35	Y35	Z35	X36	Y36	Z36	X37	Y37	Z37	X38	Y38	Z38	X39	Y39	Z39	

658	5.475																																																																																																																																																																						-3309.70752	141.99585	1270.26563	-3355.46338	151.45256	39.62503	-3517.97949	159.00285	1724.89307	-3455.16650	468.34842	1093.28601	-3382.06421	218.77756	43.17662	-3338.72192	192.82132	42.44999	-3532.57544	302.11475	80.32987	-3500.86206	373.12973	1413.55432	-3324.63696	195.81798	935.21124	-3428.66187	114.79703	28.77079	-3583.70532	317.36456	102.06924	-3488.98560	90.01328	33.22966	-3464.90869	205.71237	45.18622	-3618.51172	333.80264	60.88282	-3495.02246	256.22296	88.55411	-3510.38745	368.04977	90.23112	-3681.42139	333.23804	47.81621	-3695.66162	495.12833	217.51520	-3515.41821	282.36325	99.95459	-3564.63843	207.05792	5.89940	-3536.03101	118.72144	36.17645	
659	5.483																																																																																																																																																																						-3355.31128	151.68520	39.81444	-3318.19312	141.76260	1270.09839	-3382.30957	218.99622	43.26813	-3461.01392	468.35602	1093.25598	-3338.91504	193.48227	42.99654	-3566.61523	299.48523	72.42990	-3511.17627	371.71051	1412.23181	-3333.25903	197.25543	934.66504	-3414.80444	-23.13817	1435.36694	-3428.52466	114.99554	28.71218	-3615.45264	314.89441	97.19060	-3489.23999	88.73177	32.94243	-3789.71460	270.11417	57.98252	-3580.24316	210.50284	5.48660	-3716.99072	320.84738	44.12105	-3465.10449	205.95966	45.26754	-3651.19067	349.90500	67.88995	-3521.21436	248.74260	86.57044	-3721.36401	513.76605	238.71992	-3544.87305	253.21654	70.81080	-3728.37622	453.72614	167.32524	-3535.98584	118.48082	36.06126	
660	5.492																																																																																																																																																																						-3489.55347	88.27308	33.60070	-3355.82471	151.93965	40.04689	-3326.85938	142.25394	1269.15198	-3418.79370	-22.65808	1434.14880	-3575.09668	252.15018	61.89408	-3382.65674	219.32851	43.46396	-3467.52075	467.12979	1092.48718	-3339.18774	194.48444	43.86264	-3521.33032	370.27899	1410.95947	-3428.42749	115.18230	28.66011	-3645.94922	323.83508	101.15979	-3687.26172	319.91119	54.53767	-3465.44263	205.82837	45.06030	-3610.84106	373.27896	89.21414	-3608.31348	295.23697	62.30618	-3734.78955	441.63824	138.29256	-3745.50269	531.07434	258.88980	-3535.98779	118.01492	35.78485	
661	5.500																																																																																																																																																																						-3489.34570	88.03142	33.35222	-3356.16406	152.68309	40.53567	-3334.87817	142.61142	1268.10596	-3598.27881	345.74976	116.88454	-3382.97656	219.76823	43.87375	-3473.89014	466.61835	1092.21814	-3339.42871	194.90959	43.86321	-3639.28052	294.69528	59.20255	-3531.44409	369.18906	1409.90942	-3460.72925	229.34854	1660.71387	-3850.36987	250.35977	75.96530	-3428.56104	115.09052	28.75318	-3765.31445	445.00397	142.27281	-3465.90649	205.68089	44.79874	-3618.07129	377.14450	96.81812	-3768.10791	547.14142	278.07281	-3535.81885	117.89793	35.75116	
662	5.508																																																																																																																																																																						-3489.21533	87.83949	33.11396	-3436.06396	-24.64047	1432.36877	-3383.46582	220.27670	44.55097	-3480.86060	464.84573	1091.51099	-3339.48120	194.60083	43.68449	-3541.34033	367.37640	1408.41455	-3428.34180	115.35563	28.65965	-3389.20752	127.43903	58.36756	-3671.15918	291.13962	54.09383	-3554.82520	153.11835	1719.87024	-3360.03833	199.65199	931.99774	-3466.19165	206.02232	44.90990	-3722.75562	295.28601	492.23822	-3706.41333	304.47391	86.35314	-3813.15942	304.24747	56.42455	-3752.03076	307.60684	49.84439	-3789.03345	561.82477	296.10339	-3618.94482	444.70322	179.12408	-3827.96948	545.44202	283.84909	-3536.01367	117.30123	35.87054	
663	5.517																																																																																																																																																																						-3489.09473	87.53920	33.04989	-3698.82056	290.38388	50.37663	-3479.82544	225.61852	1658.11108	-3295.88916	3.35692	211.00581	-3383.82544	220.19345	44.48685	-3487.77466	464.98138	1090.84961	-3339.74365	195.30756	44.17435	-3356.65552	151.56491	40.52087	-3551.53564	366.36676	1407.12390	-3441.33252	-24.53472	1431.99768	-3351.29834	143.79503	1265.40137	-3428.36279	115.35468	28.73256	-3389.48389	127.49091	58.46492	-3541.00952	374.47443	186.58673	-3721.09741	306.35666	89.50233	-3369.29346	200.81197	930.90070	-3466.52417	205.93576	45.02971	-3732.95508	288.59464	489.70166	-3842.22729	296.93808	59.62833	-3808.31372	575.26654	312.92297	-3847.12817	559.59003	302.47418	-3535.98584	116.94556	35.71291	
664	5.525																																																																																																																																																																						-3488.83618	87.30974	32.72729	-3450.14380	-26.21333	1429.18799	-3384.39673	220.16492	45.08889	-3495.00073	464.10196	1090.35779	-3341.21631	258.25879	83.96333	-3472.29565	135.66263	14.42942	-3389.91284	128.35231	58.65020	-3466.77344	206.34149	45.31129	-3360.05273	144.11581	1264.37183	-3331.75513	196.69878	48.20293	-3869.48682	288.61536	64.04636	-3889.42944	246.83440	81.39039	-3826.03418	587.53070	328.53220	-3760.97168	297.28479	85.27612	-3809.13428	298.08353	52.94727	-3727.01147	287.62018	48.65714	-3688.84375	250.94769	41.35708	-3359.28198	234.68126	90.01286	-3864.93018	572.61090	319.91379	-3305.33521	220.85637	-70.73514	-3535.96533	116.64922	35.68366	
665	5.533																																																																																																																																																																						-3488.69556	87.20181	32.70450	-3583.37646	146.04872	1714.42334	-3499.23730	224.17735	1654.76843	-3835.08936	292.97543	56.72323	-3384.73242	220.25578	45.11266	-3502.44751	462.96405	1089.17505	-3336.34473	199.25555	46.91570	-3571.64185	364.75949	1404.42712	-3368.12109	144.17888	1262.39807	-3893.77222	507.55426	293.85471	-3473.72900	136.35138	14.18940	-3391.07178	129.24976	59.00970	-3467.01147	206.26660	45.27605	-3893.56665	284.02136	70.94773	-3842.02490	598.42255	342.88846	-3752.76392	285.54062	48.27630	-3785.79810	294.55377	86.85897	-3854.90088	567.22028	305.90759	-3305.25342	220.98245	-70.57173	-3535.94946	116.23690	35.69654	
666	5.542																																																																																																																																																																						-3488.53076	86.97945	32.67128	-3592.20313	142.46005	1712.37292	-3341.23438	197.72574	46.39696	-3859.07910	287.08987	59.09251	-3385.25439	219.30370	44.21121	-3510.16699	462.68893	1088.87024	-3929.11621	192.97308	96.70235	-3376.51514	145.15465	1260.87805	-3925.38184	233.57208	53.09404	-3987.71191	209.43246	81.08623	-3357.87769	153.22775	41.86784	-3390.40674	129.28209	58.64933	-3466.30347	-26.92233	1425.77576	-3467.55029	206.20958	45.24642	-3396.16675	202.58066	926.64185	-3908.23608	520.23682	309.90912	-3870.41357	578.59320	320.78992	-3731.17236	299.48096	64.64207	-3305.19434	221.19344	-70.41729	-3536.04175	115.69195	35.82177	
667	5.550																																																																																																																																																																						-3488.36401	86.74190	32.61319	-3473.29712	-26.33436	1423.87524	-3341.58838	197.77202	46.73802	-3879.96655	282.27032	62.46218	-3385.27393	218.39722	42.62187	-3518.30542	462.74353	1087.37134	-3987.09351	192.49609	113.31599	-3906.68628	236.85455	19.13927	-3518.66064	222.11174	1651.07031	-3591.96191	361.74551	1400.51001	-3358.33594	153.72218	42.16772	-3468.21240	206.40034	45.45552	-3405.38550	202.48457	925.10504	-3884.73242	589.04315	334.53925	-3937.24731	268.45193	79.83971	-3887.04736	512.45471	310.92371	-3305.14453	221.37251	-70.31319	-3536.07861	115.46265	35.91283	
668	5.558																																																																																																																																																																						-3488.20508	86.73895	32.51482	-3392.94678	145.83043	1257.73071	-3342.22144	198.63152	47.78438	-3900.67676	270.74881	65.49472	-3526.63037	460.52795	1085.54065	-3387.15479	222.58124	47.53896	-3819.49365	276.06586	47.86021	-3611.50659	139.87267	1707.51794	-3529.01050	220.84911	1649.27405	-3414.52002	205.45325	923.83881	-3358.57568	155.50003	43.60881	-3481.15210	-27.28345	1421.54736	-3896.71069	597.59277	346.12943	-3955.91309	261.28580	83.30381	-3898.86255	522.90747	323.30188	-3305.02881	221.72981	-70.24504	-3536.26416	115.08884	36.08084	
669	5.567																																																																																																																																																																						-3488.11279	86.65428	32.50298	-3401.95117	146.58817	1255.19165	-3979.87964	215.65788	59.79860	-3343.10791	200.04669	48.82866	-3359.17334	155.84723	43.39247	-3535.35791	461.14679	1083.88171	-3387.67456	224.39581	48.08340	-3621.19946	138.90971	1705.00647	-3611.87256	360.68094	1397.12415	-3836.74878	271.90662	46.35522	-3718.62549	353.56168	152.53278	-3720.75195	340.60590	122.39448	-3466.78540	344.06873	141.40004	-3795.90039	240.88490	31.39981	-3899.27026	642.32690	385.22937	-3305.00049	222.22910	-70.20000	-3536.57373	114.18483	36.20212	
670	5.575																																																																																																																																																																						-3487.98315	86.72868	32.48653	-3344.00024	201.19164	49.28682	-3409.83472	146.73053	1253.28345	-3359.99316	157.52133	43.74139	-3544.16724	460.53351	1082.57690	-3389.59326	222.69826	46.37109	-3880.44727	276.30490	87.12119	-3432.49487	203.82608	918.79852	-3852.32593	267.27539	45.90723	-3719.81274	353.33334	155.25623	-4030.18066	167.76080	123.32140	-3549.03369	217.93304	1645.54553	-3908.53931	648.51959	393.55151	-3467.68042	346.40671	143.92134	-3304.95142	222.92334	-70.08714	-3536.51270	113.70997	35.92665	
671	5.583																																																																																																																																																																						-3487.74756	87.02680	32.40702	-3641.07324	134.18802	1700.04724	-3824.78125	233.64595	28.56483	-3345.27124	203.53529	50.16338	-3418.67358	148.16920	1251.01196	-3390.78955	224.40256	47.68054	-3360.32910	159.42555	44.65534	-3551.09058	459.73044	1081.14270	-3866.33130	263.70383	44.21917	-3720.29077	352.97562	156.82060	-3558.65186	216.31592	1643.47375	-3510.31470	-24.94014	1412.34998	-3523.90967	-140.12828	1088.21326	-4002.38379	156.16690	109.70090	-3555.46362	94.12192	1.81982	-3632.01294	358.41238	1393.05481	-3723.77441	341.30582	126.73592	-3472.00610	205.95557	46.47163	-3924.62744	617.43585	372.55276	-3304.94580	223.72902	-69.88953	-3536.41040	113.32161	35.71878	
672	5.592																																																																																																																																																																						-3487.59033	87.32563	32.30889	-3829.23218	278.96500	57.21577	-3346.75708	205.59584	51.48521	-3427.36157	147.83418	1249.01440	-3563.12964	458.24243	1078.77979	-3512.44556	-28.46011	1411.96484	-3392.60303	225.58989	48.75124	-3361.02393	161.56639	45.43916	-4010.68799	235.18599	86.59344	-3959.75122	578.79224	384.55338	-3922.55347	658.25323	405.83704	-3569.07495	215.19858	1641.64734	-3555.64551	94.68214	1.86089	-3724.63672	341.59366	127.99657	-3472.92139	206.88145	47.70367	-3304.89258	224.74225	-69.71963	-3534.89355	112.96970	33.83114	
